<?xml version="1.0" standalone="no"?>
<!DOCTYPE svg PUBLIC "-//W3C//DTD SVG 20010904//EN"
 "http://www.w3.org/TR/2001/REC-SVG-20010904/DTD/svg10.dtd">
<svg version="1.0" xmlns="http://www.w3.org/2000/svg"
 width="331.000000pt" height="320.000000pt" viewBox="0 0 331.000000 320.000000"
 preserveAspectRatio="xMidYMid meet">
<metadata>
Created by potrace 1.16, written by Peter Selinger 2001-2019
</metadata>
<g transform="translate(0.000000,320.000000) scale(0.100000,-0.100000)"
fill="#000000" stroke="none">
<path d="M1287 3190 c-37 -10 -74 -36 -64 -46 2 -3 26 7 52 21 50 26 114 33
157 16 13 -5 43 -26 66 -47 46 -39 45 -43 -8 -59 -24 -7 -24 -7 -5 9 15 12 16
16 5 16 -8 1 -28 7 -45 15 -19 10 -22 13 -7 9 34 -8 26 5 -13 22 -49 20 -128
18 -175 -6 -41 -21 -78 -28 -50 -10 11 7 4 10 -27 10 -24 0 -43 5 -43 10 0 6
-9 10 -20 10 -11 0 -20 5 -20 10 0 6 -26 10 -59 10 -33 0 -63 -4 -66 -10 -3
-5 -13 -10 -21 -10 -14 0 -24 -7 -59 -37 -7 -7 -18 -13 -24 -13 -6 0 -11 -4
-11 -10 0 -5 -8 -18 -17 -28 -26 -26 -53 -69 -53 -86 0 -8 -13 -15 -35 -18
-24 -3 -31 -1 -25 7 6 7 2 16 -10 25 -11 8 -20 20 -20 27 0 7 -9 13 -20 13
-16 0 -20 -7 -20 -30 0 -44 36 -110 60 -110 10 0 21 -4 24 -9 7 -11 56 -11 56
0 0 5 18 12 40 15 22 4 40 10 40 15 0 5 14 9 30 9 17 0 30 5 30 10 0 6 12 10
27 10 14 0 24 -3 20 -6 -11 -12 28 -44 55 -44 16 0 28 -4 28 -10 0 -14 47 -12
54 3 5 10 7 10 12 0 3 -7 18 -13 33 -13 30 0 45 -21 57 -80 3 -19 17 -51 30
-72 13 -21 24 -44 24 -53 0 -8 4 -15 9 -15 9 0 15 -16 30 -77 7 -27 6 -32 -13
-37 -11 -3 -35 -6 -51 -6 -17 0 -35 -4 -40 -9 -6 -5 -21 -11 -35 -13 -16 -2
-24 -9 -21 -18 2 -8 3 -24 3 -35 -1 -11 3 -32 9 -47 7 -18 8 -32 0 -46 -11
-21 2 -42 27 -42 7 0 19 -6 27 -13 10 -11 8 -17 -16 -33 -16 -10 -29 -23 -29
-27 0 -13 -83 -87 -97 -87 -7 0 -13 -4 -13 -10 0 -5 -7 -10 -15 -10 -8 0 -15
-4 -15 -10 0 -5 -18 -13 -40 -16 -22 -4 -40 -10 -40 -15 0 -5 -14 -9 -31 -9
-24 0 -30 -4 -27 -17 2 -10 15 -20 30 -23 15 -3 37 -13 48 -22 11 -10 27 -18
35 -18 22 0 18 -13 -7 -30 -12 -8 -32 -25 -45 -37 -13 -13 -28 -23 -34 -23 -5
0 -12 -7 -15 -15 -4 -8 -10 -15 -16 -15 -5 0 -16 -6 -23 -12 -32 -29 -45 -38
-52 -38 -5 0 -15 -9 -23 -20 -8 -10 -27 -22 -42 -25 -15 -4 -28 -10 -28 -13 0
-13 -54 -33 -103 -39 -41 -5 -48 -9 -45 -27 2 -13 14 -24 36 -30 17 -5 32 -13
32 -17 0 -5 35 -9 79 -9 78 0 78 0 73 -25 -3 -19 0 -25 13 -25 11 0 15 5 11
15 -7 19 41 55 124 91 36 15 72 32 81 38 8 6 1 -2 -15 -17 -17 -15 -67 -46
-111 -69 -78 -40 -79 -40 -35 -34 25 4 46 11 48 16 2 6 12 10 23 10 10 0 19 3
19 8 0 4 11 12 24 18 23 11 24 10 14 -12 -6 -13 -17 -24 -24 -24 -14 0 -34
-30 -34 -49 0 -6 16 -11 35 -11 19 0 35 5 35 10 0 6 14 10 30 10 17 0 30 4 30
9 0 5 16 12 35 15 19 4 35 11 35 16 0 6 5 10 11 10 17 0 64 52 78 88 11 26 19
32 42 32 16 0 29 -4 29 -9 0 -5 30 -12 68 -14 96 -7 214 -26 234 -37 10 -6 27
-10 37 -10 11 0 22 -4 25 -9 3 -4 19 -11 36 -14 27 -6 29 -9 20 -32 -5 -14 -7
-25 -4 -25 3 0 -2 -8 -11 -17 -14 -13 -21 -14 -36 -5 -10 7 -26 12 -34 12 -8
0 -15 4 -15 9 0 5 -20 12 -45 15 -25 4 -45 11 -45 17 0 5 -9 9 -20 9 -11 0
-20 5 -20 10 0 6 -9 10 -20 10 -44 0 -16 -39 49 -67 22 -10 41 -21 41 -24 0
-4 18 -10 40 -14 22 -4 40 -10 40 -15 0 -4 25 -20 55 -35 30 -16 55 -32 55
-36 0 -4 14 -10 30 -14 17 -4 30 -11 30 -16 0 -5 4 -9 10 -9 18 0 110 -99 104
-113 -3 -8 2 -20 11 -27 13 -11 15 -9 15 12 0 33 -106 135 -195 186 -100 58
-133 82 -115 82 9 0 49 -20 90 -45 41 -24 79 -45 83 -45 5 0 5 10 2 23 -10 33
-55 64 -55 37 0 -5 6 -10 14 -10 8 0 16 -7 20 -15 4 -12 2 -13 -17 -2 -27 15
-37 28 -31 39 3 4 -2 8 -11 8 -12 0 -15 5 -10 18 4 9 9 31 12 47 4 27 1 32
-30 47 -34 16 -35 19 -27 49 5 17 12 34 16 38 4 3 3 -5 0 -19 -6 -21 -5 -22 4
-8 6 10 10 24 9 30 -1 7 -1 20 0 28 1 12 3 12 10 2 5 -8 4 -31 -1 -53 -6 -21
-8 -45 -4 -54 6 -17 46 -21 46 -5 0 6 -7 10 -15 10 -18 0 -20 41 -4 71 7 13 7
24 1 32 -8 9 4 11 46 9 32 -1 59 -7 60 -12 2 -6 13 -10 25 -10 12 0 35 -7 51
-15 61 -32 86 -15 86 58 0 15 4 27 9 27 10 0 41 78 41 104 0 19 22 46 38 46 6
0 13 7 16 16 8 21 8 26 -2 20 -27 -16 -84 65 -98 139 -7 37 -8 38 -15 15 -12
-43 -10 -90 7 -121 8 -17 16 -48 16 -70 0 -26 5 -39 14 -39 19 0 18 -29 -2
-37 -8 -3 -13 -12 -10 -20 3 -8 0 -24 -8 -36 -8 -12 -17 -39 -20 -59 -8 -45
-21 -47 -97 -18 -29 12 -74 26 -100 31 -27 6 -47 14 -44 19 5 8 106 -15 137
-31 13 -7 18 -6 18 5 0 9 -15 17 -40 21 -22 4 -42 11 -46 16 -3 5 -16 9 -29 9
-29 0 -45 42 -26 71 15 26 14 59 -3 59 -9 0 -12 7 -9 19 3 11 0 26 -6 33 -7 7
-18 22 -25 32 -17 24 -43 15 -56 -19 -5 -14 -16 -25 -25 -25 -21 0 -19 6 15
42 48 50 34 56 -17 8 l-47 -45 49 55 c27 30 50 57 52 60 2 2 1 -3 -3 -13 -12
-33 13 -16 35 23 12 22 59 76 103 120 90 89 100 120 15 44 -30 -27 -21 -17 19
21 40 39 115 102 168 140 93 67 95 70 69 77 -25 6 -24 7 6 4 21 -2 50 6 80 22
61 33 94 45 86 32 -3 -6 1 -10 9 -10 9 0 16 9 16 20 0 13 -7 20 -20 20 -11 0
-20 -4 -20 -10 0 -5 -9 -10 -19 -10 -11 0 -21 -5 -23 -10 -2 -6 -29 -14 -60
-17 -32 -3 -55 -10 -52 -14 3 -5 -8 -9 -24 -9 -20 0 -32 7 -42 25 -7 14 -17
25 -22 25 -10 0 -2 -16 20 -43 17 -20 16 -22 -18 -30 -23 -5 -28 1 -60 69 -24
49 -33 79 -27 89 13 24 22 18 45 -31 13 -26 25 -44 28 -41 6 6 -34 85 -47 93
-6 3 -16 0 -24 -6 -15 -12 -55 -5 -55 11 0 5 -7 9 -15 9 -8 0 -15 5 -15 10 0
9 -30 47 -67 85 -6 6 -26 36 -44 66 -18 30 -39 58 -46 62 -7 4 -13 15 -13 23
0 8 -9 25 -21 37 -18 19 -18 15 6 -32 21 -43 24 -55 13 -62 -7 -5 -16 -9 -19
-9 -11 0 -77 130 -68 135 5 4 9 11 9 18 0 8 -3 8 -12 -1 -7 -7 -17 -12 -23
-12 -17 0 -56 36 -48 44 3 3 0 6 -7 6 -7 0 -18 7 -25 16 -14 20 -130 28 -188
14z m118 -84 c12 -12 12 -16 -4 -30 -10 -9 -25 -16 -34 -16 -9 0 -17 -3 -17
-8 0 -8 -73 -42 -90 -42 -6 0 -10 -4 -10 -10 0 -5 -5 -10 -12 -10 -6 0 -20 -7
-30 -17 -10 -9 -21 -13 -25 -9 -4 4 -2 10 4 14 6 4 18 25 27 47 10 22 33 55
53 74 32 30 39 33 80 27 24 -3 50 -12 58 -20z m-335 6 c0 -12 82 -44 101 -39
15 4 14 -1 -7 -34 -13 -21 -24 -45 -24 -53 0 -8 -7 -16 -15 -20 -8 -3 -15 -1
-15 5 0 6 -7 18 -16 27 -13 12 -33 15 -93 13 -42 -1 -77 -6 -79 -11 -2 -6 -20
-10 -40 -10 -36 0 -36 0 -14 16 12 8 22 20 22 25 0 12 58 69 70 69 6 0 10 5
10 10 0 6 23 10 50 10 28 0 50 -3 50 -8z m434 -57 c-3 -8 8 -35 25 -60 36 -53
36 -55 16 -55 -8 0 -15 -4 -15 -10 0 -5 -5 -10 -11 -10 -10 0 -121 -48 -161
-71 -10 -5 -37 -8 -60 -8 l-43 1 48 8 c27 5 51 11 54 14 12 12 -11 26 -43 26
-19 0 -34 5 -34 10 0 6 -14 10 -32 10 -31 0 -31 0 -12 18 26 23 111 76 152 93
17 8 32 17 32 21 0 5 12 8 28 8 15 0 34 5 42 10 20 13 20 13 14 -5z m96 -176
c0 -10 5 -19 10 -19 6 0 10 -7 10 -15 0 -8 7 -15 15 -15 8 0 15 -7 15 -15 0
-10 10 -15 30 -15 23 0 28 -4 23 -16 -4 -10 0 -20 10 -26 10 -5 17 -20 17 -33
0 -14 6 -25 13 -25 6 0 -4 -8 -23 -17 -19 -10 -37 -20 -40 -24 -3 -4 -22 -10
-43 -14 -20 -4 -37 -11 -37 -16 0 -5 -11 -9 -25 -9 -14 0 -25 -4 -25 -10 0 -5
-27 -12 -60 -16 -33 -4 -60 -11 -60 -15 0 -5 -17 -9 -37 -9 -34 0 -36 1 -17
14 19 15 19 15 -1 30 -12 10 -15 15 -7 16 13 0 48 29 41 34 -2 1 -19 9 -37 18
l-34 15 36 7 c46 9 46 23 1 32 -33 6 -59 24 -36 24 15 0 14 27 -1 33 -7 2 -1
8 15 12 15 4 27 11 27 16 0 5 7 9 15 9 8 0 15 4 15 9 0 5 13 12 30 16 16 4 32
11 35 16 4 5 15 9 26 9 10 0 19 4 19 9 0 10 47 19 68 13 6 -2 12 -13 12 -23z
m244 -215 c3 -9 6 -24 6 -35 0 -10 4 -19 8 -19 12 0 32 -60 25 -77 -5 -12 3
-10 35 6 51 26 52 26 52 1 0 -11 -4 -20 -9 -20 -6 0 -27 -16 -48 -35 -21 -19
-46 -38 -55 -41 -10 -3 -18 -10 -18 -15 0 -5 -9 -9 -20 -9 -11 0 -20 -4 -20
-9 0 -5 -13 -12 -30 -16 -16 -4 -30 -11 -30 -16 0 -5 -11 -9 -25 -9 -14 0 -25
-4 -25 -9 0 -6 -20 -13 -45 -17 -25 -3 -45 -10 -45 -15 0 -12 -227 -12 -235 0
-3 6 -26 13 -50 17 -25 3 -45 10 -45 15 0 5 -10 10 -22 10 -13 1 -2 6 25 11
26 6 47 14 47 19 0 5 16 9 35 9 19 0 35 5 35 10 0 6 7 10 16 10 8 0 12 5 9 10
-3 6 -1 10 6 10 8 0 8 4 -1 15 -7 8 -19 15 -27 15 -23 0 -9 25 15 28 12 2 20
8 17 13 -4 5 4 9 17 9 13 0 36 7 52 15 15 8 35 15 42 15 8 0 14 5 14 10 0 6 8
10 18 10 9 0 30 7 46 15 15 8 35 15 42 15 8 0 14 5 14 10 0 6 9 10 19 10 11 0
22 4 25 9 4 5 24 12 46 16 22 4 40 11 40 16 0 16 38 10 44 -7z m-131 -366
c-13 -6 -23 -15 -23 -20 0 -4 -7 -8 -15 -8 -8 0 -15 -4 -15 -10 0 -5 -6 -10
-14 -10 -8 0 -16 -5 -18 -12 -3 -7 -16 -13 -30 -13 -29 -2 -52 -21 -62 -52 -9
-28 -99 -128 -156 -173 -17 -14 -37 -31 -45 -37 -7 -7 -23 -13 -34 -13 -12 0
-21 -4 -21 -10 0 -5 -13 -10 -30 -10 -16 0 -30 -2 -30 -4 0 -2 -3 -11 -6 -20
-5 -13 2 -16 42 -15 l49 2 -40 6 -40 6 57 18 c60 19 131 69 186 131 18 20 37
34 43 31 14 -9 -6 -32 -54 -62 -21 -13 -35 -28 -32 -34 4 -5 17 -2 33 9 42 29
60 36 28 10 -16 -13 -43 -36 -60 -51 -28 -26 -29 -28 -8 -24 33 8 27 1 -22
-22 -24 -12 -50 -19 -59 -15 -10 3 -27 -4 -44 -20 -15 -14 -33 -26 -40 -26 -7
0 -13 -4 -13 -10 0 -5 -9 -10 -20 -10 -11 0 -20 -4 -20 -9 0 -13 -92 -106
-112 -114 -10 -3 -20 -2 -23 3 -4 6 -2 10 2 10 5 0 17 20 27 45 10 24 27 53
37 63 10 11 25 36 33 56 8 20 20 36 25 36 6 0 11 8 11 18 0 46 70 152 100 152
6 0 10 5 10 10 0 6 7 10 15 10 8 0 25 11 39 25 14 14 29 25 34 25 5 0 18 12
28 26 10 14 25 32 32 39 18 20 15 25 -13 25 -24 0 -33 -5 -70 -37 -7 -7 -16
-13 -20 -13 -4 0 -13 -6 -20 -12 -34 -30 -45 -38 -55 -38 -6 0 -18 -7 -26 -15
-9 -8 -24 -15 -35 -15 -10 0 -19 -4 -19 -10 0 -5 -11 -10 -24 -10 -13 0 -26
-4 -28 -9 -1 -5 -23 -12 -47 -16 -31 -5 -42 -4 -37 4 4 6 16 11 27 11 10 0 19
5 19 10 0 6 9 10 19 10 11 0 26 7 35 15 8 8 19 15 25 15 6 0 11 5 11 10 0 6 6
10 13 10 16 0 117 94 117 109 0 6 11 11 25 11 14 0 25 -4 25 -10 0 -13 164
-13 188 -1 9 6 38 13 64 16 26 3 50 10 53 16 4 5 16 9 28 8 l22 0 -22 -11z
m-525 -266 c-24 -56 -71 -132 -100 -165 -21 -22 -38 -44 -38 -48 0 -4 -10 -11
-22 -15 -12 -3 -31 -15 -42 -26 -12 -11 -33 -22 -48 -25 -16 -3 -28 -8 -28
-12 0 -23 -132 -47 -172 -31 -20 7 -17 9 20 9 23 1 42 6 42 11 0 6 7 10 15 10
21 0 95 33 95 42 0 5 7 8 15 8 16 0 18 1 75 50 48 41 52 45 75 76 11 14 27 34
36 44 9 9 25 31 35 49 10 17 24 31 32 31 8 0 12 -3 10 -8z m352 -94 c-4 -24
-12 -56 -19 -71 -14 -35 -14 -60 -1 -52 6 3 10 1 10 -6 0 -13 -151 -3 -160 11
-3 4 -12 10 -20 13 -12 4 -11 6 3 6 9 1 17 5 17 11 0 5 11 12 25 16 14 3 25
10 25 15 0 5 7 9 15 9 8 0 15 4 15 10 0 5 11 12 25 16 14 3 25 10 25 15 0 6
39 49 45 49 1 0 -1 -19 -5 -42z"/>
<path d="M364 2997 c-6 -7 -19 -26 -30 -42 -10 -17 -22 -32 -26 -35 -14 -10
-108 -173 -108 -187 0 -7 -3 -13 -8 -13 -8 0 -12 -9 -71 -159 -23 -57 -41
-112 -41 -122 0 -10 -4 -19 -8 -19 -5 0 -14 -28 -20 -62 -6 -35 -15 -83 -21
-108 -45 -184 -39 -583 10 -705 4 -11 11 -36 15 -55 3 -19 10 -41 14 -50 4 -8
12 -26 18 -40 6 -14 25 -56 43 -95 18 -38 32 -72 30 -74 -1 -2 1 -7 7 -10 5
-3 21 -27 36 -53 15 -27 32 -48 36 -48 5 0 11 -8 14 -18 4 -10 14 -27 24 -38
9 -10 29 -35 43 -54 34 -45 107 -115 190 -180 75 -59 91 -79 77 -93 -35 -36
-118 -184 -118 -212 0 -9 -4 -24 -10 -35 -5 -11 -14 -29 -20 -40 -13 -26 -13
-97 1 -105 14 -9 38 25 37 50 -2 23 43 128 87 202 33 57 72 105 155 193 30 31
75 81 100 110 25 28 51 58 58 65 6 8 12 17 12 21 0 4 10 16 23 28 13 12 32 36
42 54 11 18 22 32 26 32 4 0 10 11 13 25 5 21 12 25 41 25 19 0 35 4 35 9 0 4
27 11 60 15 33 4 62 11 65 16 4 6 17 10 31 10 13 0 24 4 24 9 0 5 22 11 50 15
27 4 52 11 55 16 3 6 19 10 34 10 15 0 33 6 39 13 10 9 65 12 207 12 183 0
223 5 155 20 -17 4 -28 10 -25 15 3 5 -5 12 -17 16 -31 10 -181 5 -193 -7 -5
-5 -37 -9 -71 -9 -35 0 -65 -4 -68 -9 -3 -5 -37 -12 -76 -16 -38 -4 -70 -11
-70 -16 0 -5 -13 -9 -30 -9 -16 0 -30 -4 -30 -9 0 -4 -21 -11 -47 -15 -46 -6
-66 -1 -47 12 5 4 21 25 34 47 12 22 28 45 34 50 19 17 46 64 46 80 0 12 -6
14 -27 9 -16 -4 -30 -10 -33 -14 -18 -27 -47 -64 -56 -74 -6 -7 -15 -22 -19
-34 -6 -20 -9 -21 -23 -10 -13 11 -15 11 -9 -4 4 -12 2 -15 -9 -11 -7 3 -14 1
-14 -4 0 -15 36 -53 49 -53 6 0 11 -4 11 -10 0 -5 -20 -10 -44 -10 -24 0 -46
-5 -48 -11 -2 -6 -16 -9 -32 -7 l-28 3 36 40 c56 62 66 74 66 84 0 5 6 16 13
23 7 7 26 34 41 61 24 41 32 47 61 47 19 0 37 5 40 10 3 6 28 10 55 10 26 0
50 5 52 11 5 16 280 18 285 2 3 -7 13 -13 23 -13 10 0 21 -4 24 -9 3 -5 17
-12 31 -15 14 -4 50 -22 80 -41 30 -19 56 -35 59 -35 16 0 136 -118 136 -133
0 -6 -8 -2 -19 9 -36 37 -73 65 -79 60 -3 -4 4 -13 16 -22 44 -31 121 -123 83
-100 -9 6 44 -173 55 -183 16 -16 -21 135 -39 157 -5 7 -7 15 -4 19 4 3 19
-21 34 -53 28 -59 28 -60 25 -236 -5 -215 -3 -222 46 -213 21 4 53 14 72 22
19 9 43 18 54 20 40 7 -4 -23 -83 -57 l-80 -35 -7 -73 c-6 -68 -5 -74 21 -108
l28 -37 14 28 c17 32 9 47 -11 20 -13 -18 -14 -18 -25 3 -17 31 -14 33 27 27
35 -6 36 -5 18 9 -20 16 -20 16 0 17 10 1 22 1 27 0 4 0 6 5 5 11 -2 7 2 12 9
11 7 -2 10 3 8 10 -3 6 6 17 20 24 31 14 31 10 1 -30 -13 -18 -36 -56 -50 -84
-24 -49 -25 -55 -12 -85 12 -30 133 -199 158 -223 6 -5 1 8 -12 30 -13 22 -28
43 -33 46 -11 8 2 139 14 139 5 0 9 15 9 34 0 26 5 35 22 39 12 4 24 4 27 2 2
-3 -1 -5 -7 -5 -7 0 -12 -4 -12 -10 0 -22 37 -9 50 18 7 15 15 22 17 15 8 -22
29 -14 42 13 6 15 9 29 6 32 -2 3 4 11 15 19 13 9 20 26 20 46 0 21 7 36 20
45 27 17 25 32 -5 32 -14 0 -25 5 -25 10 0 6 -9 10 -19 10 -11 0 -23 5 -26 10
-3 6 1 10 9 10 9 0 16 4 16 10 0 5 16 12 35 16 19 3 35 10 35 15 0 5 9 9 20 9
11 0 20 4 20 9 0 5 10 13 23 17 12 4 29 15 38 25 9 11 22 19 28 19 17 0 187
171 195 197 4 12 16 25 26 28 10 3 22 16 26 28 4 12 10 24 13 27 12 9 41 59
41 70 0 6 8 19 18 30 9 10 26 41 36 67 11 26 22 50 26 53 3 3 14 32 24 65 10
33 21 69 26 80 11 28 29 97 29 115 1 8 7 51 13 95 7 44 13 164 13 268 l0 187
26 0 c29 0 49 17 49 41 0 9 13 31 30 49 16 18 30 36 30 41 0 5 -18 9 -40 9
-22 0 -40 -4 -40 -10 0 -5 -15 -10 -33 -10 -33 0 -33 1 -44 63 -16 94 -48 195
-58 185 -2 -2 11 -61 30 -131 l33 -127 -29 -21 c-34 -24 -30 -32 -53 111 -16
98 -59 262 -75 285 -4 6 -22 48 -40 95 -18 47 -45 105 -59 130 -17 30 -20 40
-9 31 15 -12 17 -11 17 3 0 9 -4 16 -8 16 -5 0 -17 16 -28 35 -10 19 -22 35
-26 35 -3 0 -10 10 -14 22 -3 12 -12 28 -20 35 -15 16 -44 17 -44 3 0 -12 28
-58 47 -78 7 -7 13 -18 13 -23 0 -5 9 -20 20 -32 12 -12 23 -32 26 -44 4 -13
10 -23 15 -23 5 0 9 -9 9 -19 0 -11 3 -21 8 -23 10 -4 62 -139 62 -161 0 -9 4
-17 8 -17 12 0 45 -242 39 -281 -31 -186 -41 -210 -64 -165 -16 31 -20 95 -6
104 33 22 40 112 8 112 -7 0 -16 11 -19 25 -4 16 -13 25 -25 25 -20 0 -35 -25
-25 -41 3 -5 -6 -9 -19 -9 -19 0 -27 -7 -32 -27 -3 -16 -14 -36 -22 -46 -15
-16 -15 -20 3 -52 12 -23 26 -35 40 -35 26 0 37 -13 54 -67 15 -49 7 -89 -20
-98 -11 -3 -20 -11 -20 -16 0 -5 -7 -9 -15 -9 -8 0 -15 -4 -15 -10 0 -5 -10
-10 -22 -10 -13 0 -36 -7 -52 -15 -15 -8 -35 -15 -42 -15 -8 0 -14 -4 -14 -10
0 -5 -6 -10 -12 -10 -14 0 -48 -74 -48 -102 0 -9 -4 -19 -9 -22 -4 -3 -11 -20
-15 -37 -8 -40 -67 -139 -83 -139 -7 0 -13 -9 -13 -21 0 -11 -5 -29 -10 -40
-6 -11 -8 -25 -4 -31 5 -8 12 -2 20 17 l13 30 1 -32 c0 -28 -3 -31 -25 -27
-18 3 -25 0 -25 -11 0 -10 -9 -15 -26 -15 -23 0 -25 -3 -18 -22 13 -40 5 -210
-13 -251 -13 -29 -14 -42 -5 -62 8 -17 8 -25 1 -25 -6 0 -8 -4 -5 -8 3 -4 0
-26 -5 -48 -6 -21 -15 -64 -20 -94 -5 -30 -13 -64 -18 -75 -5 -11 -15 -40 -22
-65 -13 -45 -50 -90 -76 -90 -7 0 -13 -4 -13 -10 0 -5 -9 -10 -20 -10 -11 0
-20 -4 -20 -8 0 -4 -23 -13 -50 -18 l-50 -11 -2 81 c-3 139 4 281 13 290 5 6
9 17 9 25 0 11 -3 11 -13 -4 -13 -16 -15 -14 -26 29 -7 30 -15 44 -23 40 -7
-4 -8 -3 -4 5 11 17 -35 89 -91 143 -45 43 -187 137 -243 161 -23 9 -23 11 -5
15 10 2 21 -1 23 -7 2 -6 8 -9 12 -6 5 3 29 -6 54 -20 50 -28 56 -29 56 -15 0
6 -6 10 -14 10 -8 0 -21 6 -28 13 -19 19 -83 47 -107 47 -12 0 -21 5 -21 10 0
6 -15 10 -34 10 -19 0 -38 5 -41 10 -3 6 -33 10 -65 10 -32 0 -62 -4 -65 -10
-3 -5 -33 -10 -66 -10 -33 0 -59 -4 -59 -10 0 -5 -19 -10 -43 -10 -23 0 -56
-4 -74 -9 -36 -11 -37 5 -1 30 34 23 118 108 118 119 0 16 -53 12 -80 -7 -14
-9 -53 -44 -87 -78 -77 -75 -80 -77 -125 -98 -54 -25 -50 -47 8 -47 41 0 44
-1 30 -16 -9 -9 -29 -32 -44 -52 -15 -21 -31 -40 -37 -44 -5 -4 -7 -8 -2 -8 4
0 -1 -9 -10 -19 -39 -41 -63 -73 -63 -82 0 -5 -9 -9 -20 -9 -13 0 -20 -7 -20
-20 0 -17 7 -20 47 -20 l47 0 -22 -20 c-12 -12 -22 -25 -22 -30 0 -6 -6 -10
-13 -10 -7 0 -24 -11 -39 -25 -15 -14 -32 -25 -39 -25 -14 0 -73 -32 -77 -42
-2 -5 -14 -8 -27 -8 -24 0 -49 -22 -38 -33 10 -11 103 -8 103 3 0 6 7 10 17
10 10 0 -3 -18 -37 -51 -30 -29 -56 -47 -58 -40 -2 6 -8 11 -14 11 -5 0 -16 6
-23 13 -8 6 -28 23 -45 37 -48 38 -121 111 -160 159 -19 23 -45 55 -58 69 -12
15 -25 35 -28 45 -3 9 -10 17 -15 17 -5 0 -9 7 -9 15 0 8 -4 15 -10 15 -5 0
-10 6 -10 14 0 8 -6 21 -13 28 -7 7 -21 33 -32 58 -11 25 -22 47 -25 50 -3 3
-11 16 -18 30 l-12 25 6 -25 c12 -48 98 -200 160 -282 63 -84 178 -201 268
-272 44 -36 47 -41 31 -52 -15 -11 -24 -9 -61 18 -130 93 -294 280 -377 430
-76 134 -145 354 -168 533 -15 118 -6 366 20 515 11 63 22 135 25 160 3 25 18
77 34 116 31 76 101 208 108 202 2 -2 -6 -29 -17 -59 -121 -314 -166 -832 -94
-1085 l14 -49 -6 70 c-3 39 -9 77 -13 85 -14 27 -20 254 -10 355 25 258 30
298 41 333 6 20 15 48 20 62 4 14 11 45 15 70 3 24 10 51 14 60 23 44 40 90
40 109 0 12 3 21 8 21 8 0 42 73 42 90 0 6 3 10 8 10 4 0 20 23 37 50 16 28
33 50 37 50 4 0 8 7 8 15 0 18 -31 19 -46 2z m2698 -963 c7 -78 -6 -352 -21
-430 -26 -134 -93 -334 -112 -334 -16 0 -10 46 20 141 39 129 59 265 66 459 3
91 8 174 11 186 3 12 -1 27 -10 36 -19 20 -10 29 17 19 19 -7 23 -19 29 -77z
m-76 -111 c-8 -143 -33 -307 -56 -368 -77 -200 -104 -265 -111 -265 -5 0 -9
-7 -9 -15 0 -8 -4 -15 -10 -15 -5 0 -10 -6 -10 -14 0 -8 -7 -22 -16 -30 -8 -9
-12 -16 -7 -16 4 0 3 -4 -2 -8 -6 -4 -23 -25 -39 -46 -16 -22 -43 -54 -60 -72
-17 -17 -47 -50 -66 -73 -19 -23 -39 -41 -45 -41 -6 0 -19 -11 -29 -25 -10
-14 -23 -25 -29 -25 -5 0 -17 -8 -26 -19 -9 -10 -26 -21 -38 -25 -13 -4 -23
-12 -23 -17 0 -5 -9 -9 -19 -9 -11 0 -21 -4 -23 -9 -1 -4 -13 -11 -25 -15 -17
-6 -22 -2 -25 16 -2 13 -14 -22 -27 -77 -14 -55 -30 -107 -37 -115 -11 -13 -5
-15 44 -14 57 1 82 -8 82 -30 0 -6 -5 -3 -11 7 -5 9 -15 17 -21 17 -9 0 -9 -3
0 -12 17 -17 15 -28 -5 -28 -9 0 -14 3 -10 6 3 4 0 13 -8 20 -15 16 -53 18
-87 5 -48 -17 -80 -22 -73 -11 4 6 17 15 29 20 16 6 27 25 40 72 10 34 24 75
31 89 8 14 33 103 55 197 23 95 46 172 51 172 10 0 5 -32 -27 -162 -24 -97
-32 -155 -15 -113 19 47 32 97 38 145 3 28 10 53 14 56 5 3 9 16 9 29 0 12 7
25 15 29 8 3 15 17 15 30 0 14 4 35 9 48 5 13 14 43 21 68 18 66 42 109 64
116 43 14 58 54 20 54 -17 0 -16 13 10 115 8 33 22 92 31 130 32 137 60 195
95 195 5 0 10 4 10 9 0 5 18 12 40 16 22 4 40 11 40 16 0 5 7 9 15 9 8 0 15 5
15 10 0 6 7 10 15 10 8 0 19 9 25 21 26 48 43 57 104 58 l59 1 -7 -117z"/>
<path d="M864 2872 c-6 -4 -16 -20 -21 -37 -11 -30 -12 -29 -27 18 -6 19 -41
23 -52 5 -8 -12 -23 -84 -27 -121 -1 -10 -11 -20 -24 -23 -23 -6 -39 -36 -28
-54 4 -6 -8 -10 -29 -10 -20 0 -36 5 -36 10 0 6 -4 10 -10 10 -17 0 -50 34
-50 52 0 26 -18 31 -29 9 -25 -45 -6 -139 29 -148 11 -3 20 -9 20 -14 0 -5 36
-9 81 -9 51 0 78 4 74 10 -3 6 4 10 18 10 14 0 30 7 37 15 7 8 18 15 25 15 6
0 20 16 31 35 10 19 21 35 25 35 20 0 36 127 23 178 -7 23 -12 26 -30 14z"/>
<path d="M2186 2605 c-32 -24 -63 -46 -70 -48 -6 -2 -8 -8 -3 -12 4 -5 13 -3
19 3 18 18 48 15 48 -6 0 -24 -48 -92 -64 -92 -3 0 -6 9 -6 19 0 11 -5 23 -11
27 -19 11 -29 -10 -22 -49 5 -33 9 -37 34 -37 16 0 29 5 29 10 0 6 7 10 15 10
8 0 26 11 40 25 14 14 25 32 25 40 0 8 5 15 10 15 6 0 10 18 10 40 0 29 -4 40
-15 40 -8 0 -15 5 -15 10 0 6 5 10 11 10 11 0 39 24 39 34 0 13 -18 4 -74 -39z"/>
<path d="M1927 2440 c-14 -12 -24 -27 -21 -34 3 -8 0 -17 -5 -21 -15 -9 -41
-72 -41 -99 0 -16 -2 -18 -9 -7 -6 9 -18 11 -34 7 -51 -12 -46 -109 7 -140 14
-8 20 -8 23 2 5 13 33 17 33 3 0 -4 13 -21 28 -37 41 -43 56 -87 47 -137 -4
-23 -8 -61 -9 -84 -1 -34 -5 -43 -18 -43 -10 0 -18 -4 -18 -10 0 -5 4 -10 9
-10 5 0 16 -3 24 -6 16 -6 20 6 32 99 3 26 10 45 16 42 12 -8 12 -4 -6 39 -9
20 -13 41 -10 46 4 6 1 10 -5 10 -7 0 -10 6 -7 14 3 8 -1 22 -9 33 -9 10 -12
11 -8 3 4 -8 -9 1 -30 19 -24 23 -34 41 -31 52 3 10 1 20 -4 24 -7 4 -8 -1 -4
-12 4 -13 3 -15 -5 -8 -6 6 -14 24 -17 40 -5 23 -4 26 4 15 9 -12 11 -10 11
12 0 20 4 26 14 22 10 -4 16 3 19 18 2 13 2 3 0 -22 -4 -41 -1 -48 30 -78 l34
-33 7 42 c4 24 12 49 18 56 18 22 -11 203 -32 203 -4 0 -19 -9 -33 -20z"/>
<path d="M1840 1264 c0 -4 10 -15 22 -25 35 -31 77 -113 84 -163 2 -16 10 -50
18 -75 24 -76 28 -137 21 -304 -9 -191 -26 -199 -32 -15 -2 68 -9 168 -15 223
-6 55 -12 124 -15 153 -3 36 -9 52 -19 52 -11 0 -14 -20 -14 -99 0 -54 4 -111
9 -127 11 -34 21 -284 11 -284 -3 0 -15 8 -26 18 -10 10 -35 25 -56 35 -27 13
-35 22 -31 36 7 26 -37 103 -55 96 -7 -2 -10 0 -7 5 7 12 -14 110 -27 125 -12
13 -10 -24 3 -65 6 -19 10 -55 10 -80 -1 -33 1 -41 9 -30 7 11 8 2 5 -30 -3
-25 -1 -58 4 -75 9 -25 10 -20 5 29 -7 67 10 71 19 4 6 -42 27 -68 56 -68 11
1 8 8 -11 25 -16 13 -28 27 -28 31 0 4 8 0 18 -8 9 -9 42 -28 72 -43 30 -14
72 -45 92 -68 l37 -42 1 203 c0 209 -9 282 -50 414 -20 64 -62 133 -92 149
-10 5 -18 7 -18 3z"/>
<path d="M1410 1176 c0 -8 -3 -16 -7 -18 -13 -5 -62 -86 -88 -143 -13 -30 -29
-55 -34 -55 -6 0 -11 -9 -11 -19 0 -35 -16 -31 -30 7 -12 35 -32 62 -44 62
-10 0 -7 -65 6 -122 19 -88 41 -101 73 -41 11 20 25 41 30 47 14 15 95 181 95
195 0 6 4 11 10 11 5 0 12 16 16 35 3 19 10 35 15 35 5 0 9 5 9 10 0 6 -9 10
-20 10 -11 0 -20 -6 -20 -14z"/>
<path d="M1630 1133 c0 -55 6 -97 30 -243 10 -60 22 -145 50 -351 8 -65 17
-87 54 -145 25 -38 49 -74 54 -79 5 -6 17 -24 28 -40 10 -17 24 -34 31 -38 7
-4 13 -12 13 -18 0 -10 34 -62 58 -87 6 -7 12 -20 12 -28 0 -8 3 -14 8 -14 4
0 18 -18 32 -40 27 -44 53 -58 76 -40 12 11 11 15 -6 30 -11 10 -20 22 -20 27
0 5 -11 23 -25 39 -14 16 -25 32 -25 35 0 3 -9 17 -20 30 -12 12 -31 39 -43
59 -11 19 -27 41 -34 48 -7 7 -13 19 -13 25 0 7 -11 21 -25 31 -14 10 -25 24
-25 31 0 6 -9 20 -20 30 -11 10 -20 24 -20 32 0 7 -7 16 -15 19 -8 4 -15 14
-15 23 -1 14 -2 14 -15 -3 -16 -21 -10 -48 -54 254 -42 290 -40 273 -22 286
13 10 14 17 3 46 -6 19 -12 46 -12 61 0 15 -4 27 -10 27 -5 0 -10 11 -10 25 0
14 -4 25 -10 25 -6 0 -10 -26 -10 -57z"/>
<path d="M989 1092 c-9 -9 -29 -39 -45 -67 -15 -27 -31 -52 -34 -55 -21 -19
-169 -343 -175 -385 -4 -23 -33 -112 -46 -138 -5 -9 -12 -51 -16 -92 -6 -72
-5 -75 16 -75 16 0 21 6 21 28 0 16 6 48 14 73 7 24 19 64 27 89 7 25 16 50
19 55 4 6 10 24 13 41 3 17 18 58 32 90 36 82 165 334 176 344 6 6 39 92 39
103 0 13 -25 6 -41 -11z"/>
<path d="M1096 1094 c-3 -9 -6 -24 -6 -35 0 -10 -4 -19 -9 -19 -9 0 -10 -5
-35 -130 -8 -41 -20 -95 -26 -120 -6 -25 -16 -74 -21 -110 -6 -36 -14 -74 -18
-85 -16 -41 -30 -91 -37 -132 -4 -24 -10 -43 -14 -43 -4 0 -15 -18 -26 -40
-10 -22 -22 -40 -26 -40 -5 0 -8 -8 -8 -18 0 -10 -7 -27 -15 -38 -8 -10 -15
-29 -15 -41 0 -13 -4 -23 -10 -23 -5 0 -10 -9 -10 -19 0 -11 -4 -23 -10 -26
-5 -3 -10 -14 -10 -24 0 -10 -14 -44 -30 -75 -31 -58 -32 -76 -1 -76 12 0 29
25 55 82 21 46 43 93 49 105 6 13 13 21 15 18 3 -3 1 -15 -5 -28 -16 -35 -32
-89 -39 -135 -7 -43 -7 -44 22 -40 23 2 29 8 30 28 1 29 12 76 24 105 12 30
29 98 29 115 0 8 4 31 10 50 5 19 19 73 31 120 11 47 28 112 36 145 9 33 20
85 25 115 4 30 15 84 25 120 24 98 44 199 51 258 4 42 3 52 -10 52 -8 0 -18
-7 -21 -16z"/>
<path d="M1527 1073 c-4 -3 -7 -25 -7 -47 0 -23 -5 -59 -11 -81 -13 -51 -24
-132 -44 -315 -9 -80 -20 -179 -26 -220 -14 -111 -36 -394 -32 -402 2 -5 13
-8 24 -8 15 0 19 7 19 31 0 16 4 49 10 72 5 23 15 100 21 172 6 72 15 166 19
210 5 44 13 136 19 205 6 69 15 155 21 193 5 37 10 97 10 132 0 60 -6 75 -23
58z"/>
<path d="M1000 980 c0 -6 -11 -33 -24 -60 -14 -28 -28 -64 -31 -80 -4 -17 -10
-30 -13 -30 -4 0 -13 -19 -20 -42 -7 -24 -23 -65 -36 -93 -50 -108 -86 -222
-92 -292 -6 -62 -4 -73 9 -73 11 0 20 20 32 68 9 37 17 74 18 82 1 8 5 17 8
20 9 8 59 139 59 155 0 8 4 15 8 15 4 0 16 24 27 53 10 28 26 70 35 92 23 51
50 139 50 159 0 9 5 16 11 16 5 0 7 5 4 10 -8 13 -45 13 -45 0z"/>
<path d="M1440 955 c0 -8 -4 -15 -10 -15 -5 0 -10 -9 -10 -21 0 -11 -11 -44
-24 -72 -13 -29 -27 -68 -31 -87 -4 -19 -10 -39 -14 -45 -7 -10 -24 -62 -51
-152 -7 -24 -17 -43 -21 -43 -4 0 -10 -22 -14 -50 -4 -27 -10 -50 -15 -50 -4
0 -10 -12 -13 -27 -11 -54 -44 -157 -94 -296 -25 -68 -25 -97 0 -97 26 0 28 6
79 185 7 22 14 45 18 50 14 23 31 86 25 94 -3 5 -1 12 5 16 5 3 10 13 10 21 0
8 9 33 19 55 11 21 22 58 26 82 4 23 11 47 15 52 4 6 15 35 25 65 9 30 25 73
35 95 10 23 21 62 25 88 4 26 11 50 16 53 5 3 9 18 9 33 0 15 5 32 11 38 13
13 5 43 -11 43 -5 0 -10 -7 -10 -15z"/>
<path d="M705 696 c-22 -24 -47 -52 -55 -62 -23 -30 -80 -147 -80 -164 0 -9
-4 -20 -8 -25 -11 -13 -30 -80 -36 -131 -4 -27 -1 -47 9 -60 20 -26 30 -9 45
74 6 35 15 71 19 80 5 10 28 58 52 107 24 50 49 96 56 103 7 7 13 17 13 21 0
4 8 16 19 27 18 20 41 58 41 68 0 20 -41 -1 -75 -38z"/>
<path d="M1840 592 c0 -4 9 -14 20 -22 27 -19 26 -23 -12 -39 -18 -8 -39 -20
-45 -27 -18 -17 -16 -44 2 -44 8 0 15 5 15 10 0 6 8 10 18 10 9 0 30 7 46 15
54 28 67 20 146 -89 19 -26 43 -56 53 -67 9 -10 17 -26 17 -34 0 -9 7 -18 15
-21 8 -3 17 -14 20 -23 3 -10 14 -26 24 -38 10 -11 31 -39 46 -63 15 -24 36
-52 46 -63 10 -12 21 -29 25 -39 3 -10 10 -18 15 -18 5 0 9 -7 9 -15 0 -10 10
-15 30 -15 36 0 37 9 6 47 -12 15 -28 38 -35 51 -6 12 -16 22 -22 22 -5 0 8
-24 30 -52 22 -29 36 -55 30 -57 -12 -4 -7 -11 -175 227 -75 107 -156 214
-179 239 -41 43 -45 45 -74 35 -32 -11 -40 -5 -19 16 9 9 6 17 -12 37 -23 25
-40 32 -40 17z"/>
</g>
</svg>
