<?xml version="1.0" standalone="no"?>
<!DOCTYPE svg PUBLIC "-//W3C//DTD SVG 20010904//EN"
 "http://www.w3.org/TR/2001/REC-SVG-20010904/DTD/svg10.dtd">
<svg version="1.0" xmlns="http://www.w3.org/2000/svg"
 width="65.000000pt" height="63.000000pt" viewBox="0 0 65.000000 63.000000"
 preserveAspectRatio="xMidYMid meet">
<metadata>
Created by potrace 1.16, written by Peter Selinger 2001-2019
</metadata>
<g transform="translate(0.000000,63.000000) scale(0.100000,-0.100000)"
fill="#000000" stroke="none">
<path d="M164 611 c-9 -10 -23 -17 -30 -14 -17 6 -18 -9 -3 -24 16 -16 4 -44
-16 -37 -10 4 -15 0 -15 -15 0 -16 6 -21 28 -21 34 0 52 16 52 47 0 29 23 30
50 3 24 -24 26 -50 4 -50 -10 0 -14 -7 -12 -24 3 -26 -17 -56 -38 -56 -17 0
-18 -17 -1 -23 10 -3 -37 -39 -68 -51 -22 -8 13 -26 57 -28 40 -3 45 -5 34
-18 -7 -8 -16 -22 -20 -30 -34 -73 -53 -86 -86 -57 -14 12 -9 5 9 -16 19 -20
30 -37 24 -37 -14 0 -68 61 -87 99 -27 52 -39 118 -31 178 6 45 9 54 16 38 6
-14 7 -10 3 15 -3 24 -2 31 4 21 8 -10 11 -6 17 18 3 17 11 33 16 36 5 4 9 13
9 21 0 28 -22 2 -51 -60 -25 -52 -29 -73 -29 -144 0 -95 20 -148 75 -202 33
-32 33 -34 19 -61 -16 -31 -19 -63 -5 -54 5 3 11 -3 14 -12 3 -15 6 -14 15 7
9 22 11 22 12 5 0 -11 4 -16 8 -10 4 6 13 11 20 13 9 2 9 -5 -3 -27 -19 -38
-19 -41 5 -41 14 0 22 10 29 38 19 70 39 176 35 183 -2 4 7 9 21 11 30 6 33
-7 5 -24 -11 -7 -20 -21 -20 -30 0 -33 26 -18 48 28 21 42 26 46 52 42 31 -5
35 8 10 30 -13 12 -12 13 5 8 17 -5 18 -4 5 6 -8 7 -15 23 -16 36 -1 21 7 26
34 23 16 -2 15 16 -2 26 -7 4 -17 19 -21 31 -6 22 -5 23 14 13 17 -10 20 -9
14 5 -4 12 -3 15 6 10 9 -6 11 0 8 23 -4 26 -1 35 19 48 14 8 27 13 30 10 3
-3 -4 -10 -15 -17 -25 -13 -28 -30 -6 -30 15 0 40 48 30 58 -3 3 -16 0 -30 -6
-19 -9 -26 -8 -32 3 -4 7 -12 14 -18 14 -5 0 -11 5 -14 12 -2 7 1 9 9 4 9 -5
11 -4 6 4 -4 6 -11 9 -16 6 -5 -3 -16 5 -25 19 -16 25 -41 35 -107 42 -29 4
-42 0 -54 -15z"/>
<path d="M538 603 c-10 -3 -18 -9 -18 -14 0 -5 8 -17 18 -27 9 -10 17 -24 18
-32 1 -8 5 -26 9 -40 l8 -24 -28 18 c-15 10 -29 15 -32 12 -3 -3 1 -8 9 -11 9
-4 13 -15 11 -29 -3 -13 0 -27 6 -30 17 -11 13 -24 -9 -31 -42 -13 -93 -162
-70 -205 7 -12 7 -21 0 -25 -5 -3 -10 -15 -10 -26 0 -10 -4 -19 -10 -19 -6 0
-6 9 0 26 14 35 12 41 -3 19 -8 -10 -19 -15 -25 -11 -8 5 -12 -4 -12 -28 0
-27 -3 -34 -15 -30 -8 4 -15 10 -15 16 0 5 5 6 10 3 6 -4 10 9 9 32 -1 40 -16
100 -18 71 -1 -20 -41 -13 -41 8 0 49 -60 -46 -89 -140 -24 -76 -25 -86 -12
-86 5 0 14 21 20 48 19 78 33 86 27 15 -7 -79 10 -84 19 -5 3 31 10 80 14 107
l9 50 2 -40 2 -40 10 34 9 34 15 -28 c19 -36 17 -57 -2 -25 -15 24 -15 24 -9
-20 4 -32 2 -41 -5 -30 -7 11 -10 12 -10 2 0 -17 60 -102 72 -102 13 0 10 8
-17 48 -26 38 -16 60 11 26 9 -11 12 -13 8 -5 -5 9 -3 12 5 7 6 -4 9 -11 7
-15 -7 -11 11 -34 28 -37 9 -1 14 2 10 7 -3 5 -10 6 -16 3 -8 -5 -9 -1 -5 10
4 10 7 22 7 27 0 5 6 9 14 9 13 0 23 17 27 45 1 6 16 20 33 31 31 22 87 109
85 135 0 8 -5 5 -10 -6 -7 -16 -8 -12 -4 14 3 18 5 52 6 75 0 22 3 35 6 28 3
-8 11 -5 24 12 24 30 24 32 -1 39 -14 4 -20 0 -21 -11 -1 -19 -27 45 -28 68
-1 13 0 13 9 0 5 -8 10 -10 10 -5 0 6 -11 27 -25 47 -22 33 -23 37 -7 40 9 2
13 6 7 9 -5 3 -18 4 -27 2z"/>
</g>
</svg>
